<svg width="24" height="24" viewBox="0 0 24 24" fill="none" xmlns="http://www.w3.org/2000/svg">
<path fill-rule="evenodd" clip-rule="evenodd" d="M5.312 5.0535C5.5675 4.9 5.961 4.75 6.5 4.75C7.039 4.75 7.4325 4.9 7.688 5.0535C8.0825 5.2895 8.2005 5.6935 8.2065 5.9815C8.218 6.5555 8.25 8.4485 8.25 12C8.25 15.5515 8.218 17.4445 8.2065 18.0185C8.2005 18.306 8.0825 18.7105 7.688 18.9465C7.4325 19.1 7.039 19.25 6.5 19.25C5.961 19.25 5.5675 19.1 5.312 18.9465C4.9175 18.7105 4.7995 18.3065 4.7935 18.0185C4.782 17.445 4.75 15.5515 4.75 12C4.75 8.4485 4.782 6.5555 4.7935 5.9815C4.7995 5.694 4.9175 5.2895 5.312 5.0535ZM18.688 5.0535C18.4325 4.9 18.039 4.75 17.5 4.75C16.961 4.75 16.5675 4.9 16.312 5.0535C15.918 5.2895 15.7995 5.6935 15.7935 5.9815C15.782 6.555 15.75 8.4485 15.75 12C15.75 15.5515 15.782 17.4445 15.7935 18.0185C15.7995 18.306 15.9175 18.7105 16.312 18.9465C16.5675 19.1 16.961 19.25 17.5 19.25C18.039 19.25 18.4325 19.1 18.688 18.9465C19.082 18.7105 19.2005 18.3065 19.2065 18.0185C19.218 17.4445 19.25 15.5515 19.25 12C19.25 8.4485 19.218 6.5555 19.2065 5.9815C19.2005 5.694 19.082 5.2895 18.688 5.0535ZM2.25 7.25C1.92 7.25 1.6555 7.31 1.453 7.3885C0.945 7.5855 0.788 8.0665 0.7805 8.3885C0.7705 8.837 0.75 9.987 0.75 12C0.75 14.013 0.77 15.163 0.78 15.6115C0.7875 15.9335 0.945 16.415 1.453 16.6115C1.6555 16.69 1.92 16.75 2.25 16.75C2.58 16.75 2.8445 16.69 3.047 16.6115C3.555 16.415 3.712 15.9335 3.7195 15.6115C3.7295 15.163 3.75 14.013 3.75 12C3.75 9.987 3.73 8.837 3.72 8.3885C3.7125 8.0665 3.555 7.585 3.047 7.3885C2.79218 7.29347 2.52194 7.24651 2.25 7.25ZM22.547 7.3885C22.2922 7.29347 22.0219 7.24651 21.75 7.25C21.42 7.25 21.1555 7.31 20.953 7.3885C20.4455 7.5855 20.288 8.0665 20.2805 8.3885C20.2705 8.837 20.25 9.987 20.25 12C20.25 14.013 20.27 15.163 20.28 15.6115C20.2875 15.9335 20.445 16.415 20.953 16.6115C21.1555 16.69 21.4205 16.75 21.75 16.75C22.08 16.75 22.3445 16.69 22.547 16.6115C23.0545 16.415 23.212 15.9335 23.2195 15.6115C23.2295 15.163 23.25 14.013 23.25 12C23.25 9.987 23.23 8.837 23.22 8.3885C23.2125 8.0665 23.055 7.585 22.547 7.3885ZM9.25 13.4285V10.5715C9.25 10.0975 9.638 9.8485 10.0515 9.813C10.1368 9.805 10.2643 9.79633 10.434 9.787C10.774 9.768 11.2875 9.75 12 9.75C12.7125 9.75 13.2265 9.768 13.566 9.787C13.7357 9.79633 13.8632 9.805 13.9485 9.813C14.362 9.848 14.75 10.0975 14.75 10.5715V13.4285C14.75 13.903 14.362 14.1515 13.9485 14.187C13.8632 14.195 13.7357 14.2037 13.566 14.213C13.226 14.232 12.7125 14.25 12 14.25C11.2875 14.25 10.7735 14.232 10.434 14.213C10.2643 14.2037 10.1368 14.195 10.0515 14.187C9.638 14.152 9.25 13.9025 9.25 13.4285Z" fill="#FF6B00"/>
</svg>
